HIERARCHY
ROOT mixamorig:Hips
{
	OFFSET 0.00 0.00 0.00
	CHANNELS 6 Xposition Yposition Zposition Zrotation Yrotation Xrotation
	JOINT mixamorig:Spine
	{
		OFFSET	0.0000	9.9235	-1.2273
		CHANNELS 3 Zrotation Yrotation Xrotation
		JOINT mixamorig:Spine1
		{
			OFFSET	-0.0001	11.6455	-1.4224
			CHANNELS 3 Zrotation Yrotation Xrotation
			JOINT mixamorig:Spine2
			{
				OFFSET	0.0001	13.3602	-1.6265
				CHANNELS 3 Zrotation Yrotation Xrotation
				JOINT mixamorig:Neck
				{
					OFFSET	0.0000	15.0325	0.7929
					CHANNELS 3 Zrotation Yrotation Xrotation
					JOINT mixamorig:Head
					{
						OFFSET	-0.0000	10.3218	3.1424
						CHANNELS 3 Zrotation Yrotation Xrotation
						JOINT mixamorig:HeadTop_End
						{
							OFFSET	0.0002	18.4747	6.6364
							CHANNELS 3 Zrotation Yrotation Xrotation
							End Site
							{
								OFFSET 0.0000 0.0000 0.0000
							}
						}
						JOINT mixamorig:LeftEye
						{
							OFFSET	2.9479	7.6817	9.1207
							CHANNELS 3 Zrotation Yrotation Xrotation
							End Site
							{
								OFFSET 0.0000 0.0000 0.0000
							}
						}
						JOINT mixamorig:RightEye
						{
							OFFSET	-2.9445	7.6817	9.1205
							CHANNELS 3 Zrotation Yrotation Xrotation
							End Site
							{
								OFFSET 0.0000 0.0000 0.0000
							}
						}
					}
				}
				JOINT mixamorig:LeftShoulder
				{
					OFFSET	6.1059	9.1104	0.7056
					CHANNELS 3 Zrotation Yrotation Xrotation
					JOINT mixamorig:LeftArm
					{
						OFFSET	12.6532	-0.3431	-2.6009
						CHANNELS 3 Zrotation Yrotation Xrotation
						JOINT mixamorig:LeftForeArm
						{
							OFFSET	27.3517	-0.9645	-1.4034
							CHANNELS 3 Zrotation Yrotation Xrotation
							JOINT mixamorig:LeftHand
							{
								OFFSET	27.5619	-0.7072	1.5500
								CHANNELS 3 Zrotation Yrotation Xrotation
								JOINT mixamorig:LeftHandMiddle1
								{
									OFFSET	12.6630	-1.3962	0.9548
									CHANNELS 3 Zrotation Yrotation Xrotation
									JOINT mixamorig:LeftHandMiddle2
									{
										OFFSET	3.6093	-0.1669	0.0778
										CHANNELS 3 Zrotation Yrotation Xrotation
										JOINT mixamorig:LeftHandMiddle3
										{
											OFFSET	3.4004	-0.6274	0.1148
											CHANNELS 3 Zrotation Yrotation Xrotation
											End Site
											{
												OFFSET 3.6205 -0.6493 0.1199
											}
										}
									}
								}
								JOINT mixamorig:LeftHandThumb1
								{
									OFFSET	3.3268	-2.0474	3.5790
									CHANNELS 3 Zrotation Yrotation Xrotation
									JOINT mixamorig:LeftHandThumb2
									{
										OFFSET	3.4890	-1.4806	2.8548
										CHANNELS 3 Zrotation Yrotation Xrotation
										JOINT mixamorig:LeftHandThumb3
										{
											OFFSET	3.4086	-1.7658	2.1133
											CHANNELS 3 Zrotation Yrotation Xrotation
											End Site
											{
												OFFSET 2.7231 -1.1597 1.7903
											}
										}
									}
								}
								JOINT mixamorig:LeftHandIndex1
								{
									OFFSET	11.9722	-1.1061	3.7324
									CHANNELS 3 Zrotation Yrotation Xrotation
									JOINT mixamorig:LeftHandIndex2
									{
										OFFSET	3.8387	-0.6406	-0.0310
										CHANNELS 3 Zrotation Yrotation Xrotation
										JOINT mixamorig:LeftHandIndex3
										{
											OFFSET	3.3346	-0.7374	-0.0133
											CHANNELS 3 Zrotation Yrotation Xrotation
											End Site
											{
												OFFSET 2.9714 -0.8030 0.0009
											}
										}
									}
								}
								JOINT mixamorig:LeftHandRing1
								{
									OFFSET	12.1659	-1.6805	-1.2769
									CHANNELS 3 Zrotation Yrotation Xrotation
									JOINT mixamorig:LeftHandRing2
									{
										OFFSET	3.5925	-0.2366	-0.0771
										CHANNELS 3 Zrotation Yrotation Xrotation
										JOINT mixamorig:LeftHandRing3
										{
											OFFSET	3.2906	-0.3266	-0.0615
											CHANNELS 3 Zrotation Yrotation Xrotation
											End Site
											{
												OFFSET 3.5423 -0.9211 -0.0200
											}
										}
									}
								}
								JOINT mixamorig:LeftHandPinky1
								{
									OFFSET	11.0508	-2.1872	-3.8040
									CHANNELS 3 Zrotation Yrotation Xrotation
									JOINT mixamorig:LeftHandPinky2
									{
										OFFSET	4.1236	-0.3047	0.1212
										CHANNELS 3 Zrotation Yrotation Xrotation
										JOINT mixamorig:LeftHandPinky3
										{
											OFFSET	2.5805	-0.2597	0.0823
											CHANNELS 3 Zrotation Yrotation Xrotation
											End Site
											{
												OFFSET 2.9027 -0.3379 0.0963
											}
										}
									}
								}
							}
						}
					}
				}
				JOINT mixamorig:RightShoulder
				{
					OFFSET	-6.1057	9.1105	0.7056
					CHANNELS 3 Zrotation Yrotation Xrotation
					JOINT mixamorig:RightArm
					{
						OFFSET	-12.6532	-0.3429	-2.6009
						CHANNELS 3 Zrotation Yrotation Xrotation
						JOINT mixamorig:RightForeArm
						{
							OFFSET	-27.3518	-0.9642	-1.4034
							CHANNELS 3 Zrotation Yrotation Xrotation
							JOINT mixamorig:RightHand
							{
								OFFSET	-27.5619	-0.7068	1.5501
								CHANNELS 3 Zrotation Yrotation Xrotation
								JOINT mixamorig:RightHandMiddle1
								{
									OFFSET	-12.6630	-1.3960	0.9549
									CHANNELS 3 Zrotation Yrotation Xrotation
									JOINT mixamorig:RightHandMiddle2
									{
										OFFSET	-3.6093	-0.1669	0.0778
										CHANNELS 3 Zrotation Yrotation Xrotation
										JOINT mixamorig:RightHandMiddle3
										{
											OFFSET	-3.4004	-0.6273	0.1148
											CHANNELS 3 Zrotation Yrotation Xrotation
											End Site
											{
												OFFSET -3.6205 -0.6492 0.1199
											}
										}
									}
								}
								JOINT mixamorig:RightHandThumb1
								{
									OFFSET	-3.3269	-2.0474	3.5790
									CHANNELS 3 Zrotation Yrotation Xrotation
									JOINT mixamorig:RightHandThumb2
									{
										OFFSET	-3.4890	-1.4805	2.8548
										CHANNELS 3 Zrotation Yrotation Xrotation
										JOINT mixamorig:RightHandThumb3
										{
											OFFSET	-3.4086	-1.7658	2.1133
											CHANNELS 3 Zrotation Yrotation Xrotation
											End Site
											{
												OFFSET -2.7231 -1.1596 1.7903
											}
										}
									}
								}
								JOINT mixamorig:RightHandIndex1
								{
									OFFSET	-11.9722	-1.1059	3.7324
									CHANNELS 3 Zrotation Yrotation Xrotation
									JOINT mixamorig:RightHandIndex2
									{
										OFFSET	-3.8387	-0.6406	-0.0310
										CHANNELS 3 Zrotation Yrotation Xrotation
										JOINT mixamorig:RightHandIndex3
										{
											OFFSET	-3.3346	-0.7373	-0.0133
											CHANNELS 3 Zrotation Yrotation Xrotation
											End Site
											{
												OFFSET -2.9715 -0.8029 0.0009
											}
										}
									}
								}
								JOINT mixamorig:RightHandRing1
								{
									OFFSET	-12.1659	-1.6803	-1.2769
									CHANNELS 3 Zrotation Yrotation Xrotation
									JOINT mixamorig:RightHandRing2
									{
										OFFSET	-3.5925	-0.2366	-0.0771
										CHANNELS 3 Zrotation Yrotation Xrotation
										JOINT mixamorig:RightHandRing3
										{
											OFFSET	-3.2906	-0.3265	-0.0615
											CHANNELS 3 Zrotation Yrotation Xrotation
											End Site
											{
												OFFSET -3.5423 -0.9210 -0.0200
											}
										}
									}
								}
								JOINT mixamorig:RightHandPinky1
								{
									OFFSET	-11.0508	-2.1870	-3.8040
									CHANNELS 3 Zrotation Yrotation Xrotation
									JOINT mixamorig:RightHandPinky2
									{
										OFFSET	-4.1236	-0.3046	0.1212
										CHANNELS 3 Zrotation Yrotation Xrotation
										JOINT mixamorig:RightHandPinky3
										{
											OFFSET	-2.5805	-0.2597	0.0823
											CHANNELS 3 Zrotation Yrotation Xrotation
											End Site
											{
												OFFSET -2.9027 -0.3379 0.0963
											}
										}
									}
								}
							}
						}
					}
				}
			}
		}
	}
	JOINT mixamorig:RightUpLeg
	{
		OFFSET	-9.1245	-6.6564	-0.0554
		CHANNELS 3 Zrotation Yrotation Xrotation
		JOINT mixamorig:RightLeg
		{
			OFFSET	0.0000	-40.5610	-1.7662
			CHANNELS 3 Zrotation Yrotation Xrotation
			JOINT mixamorig:RightFoot
			{
				OFFSET	0.4978	-41.9625	-3.3512
				CHANNELS 3 Zrotation Yrotation Xrotation
				JOINT mixamorig:RightToeBase
				{
					OFFSET	-0.3734	-10.4922	12.6406
					CHANNELS 3 Zrotation Yrotation Xrotation
					End Site
					{
						OFFSET 0.0000 0.0000 9.9925
					}
				}
			}
		}
	}
	JOINT mixamorig:LeftUpLeg
	{
		OFFSET	9.1245	-6.6564	-0.0554
		CHANNELS 3 Zrotation Yrotation Xrotation
		JOINT mixamorig:LeftLeg
		{
			OFFSET	-0.0000	-40.5610	-1.7662
			CHANNELS 3 Zrotation Yrotation Xrotation
			JOINT mixamorig:LeftFoot
			{
				OFFSET	-0.4978	-41.9625	-3.3512
				CHANNELS 3 Zrotation Yrotation Xrotation
				JOINT mixamorig:LeftToeBase
				{
					OFFSET	0.3734	-10.4922	12.6406
					CHANNELS 3 Zrotation Yrotation Xrotation
					End Site
					{
						OFFSET -0.0000 0.0000 9.9925
					}
				}
			}
		}
	}
}
MOTION
Frames: 6
Frame Time: 0.0333333
9.6757 92.9705 6.0616 -4.3979 8.3309 1.7093 -3.2129 2.9446 1.4611 -5.3312 5.7324 3.1736 -5.3408 5.6959 3.2141 -7.1679 -3.4714 -2.2021 10.5036 -28.3156 1.7560 0.0000 -0.0000 0.0000 0.0000 -0.0000 0.0000 0.0000 -0.0000 0.0000 -4.7495 -3.2021 1.4080 -38.4878 -29.1743 4.1646 174.0405 -67.9716 -176.3355 22.9648 1.7347 6.6800 -71.1635 -4.1119 5.2587 -57.0791 -1.0970 2.0618 -39.2349 -1.2025 1.4789 -11.6383 3.2131 3.6867 2.5947 1.2102 -1.1862 -4.7543 15.7111 6.2259 -56.5084 -6.2726 3.6631 -70.4796 -2.1995 0.5612 -45.2433 -1.4298 0.1414 -75.6026 -4.9237 5.3584 -57.0342 -2.3030 -0.1809 -33.1928 -0.9756 -0.2867 -73.0386 1.9135 5.7637 -63.9073 -3.2487 6.2042 -42.0437 -1.1340 1.6752 -13.0772 1.2059 0.1242 9.8714 52.0566 -36.5770 -9.3890 82.5146 -11.3053 -31.9391 3.2029 39.6147 49.9203 6.9371 3.5864 39.6885 0.8263 1.2914 39.4069 1.1608 1.4797 10.7920 -9.4531 -1.8631 -1.9687 -1.9674 -0.4561 1.2966 -2.7810 1.9057 49.3673 12.4287 2.0890 34.6701 1.0596 -0.0857 32.9654 0.9785 -0.0127 49.8724 6.0912 3.4873 28.9958 1.0696 -0.3982 24.0266 0.5431 -0.2699 56.3151 -1.3387 4.5633 29.5602 0.8462 1.0517 30.3529 0.9024 1.1249 -2.5717 -15.0525 -1.8842 -10.1516 -3.7154 43.1910 16.0342 -8.8250 -0.4406 10.2366 2.8747 -21.7973 7.0344 0.8531 -35.8471 1.8227 -13.9772 39.3138 -9.7186 -16.8693 -7.5437 -0.0000 0.0000 -1.1400 
10.2753 91.7547 6.3390 -4.8643 6.6472 1.6185 -3.6895 3.1704 2.3034 -5.8824 6.1679 4.5341 -5.8736 6.1278 4.5919 -7.0572 -3.5846 -1.7771 13.5399 -28.4440 -2.7729 0.0000 -0.0000 0.0000 0.0000 -0.0000 0.0000 0.0000 -0.0000 0.0000 -5.7599 -5.0996 1.9313 -41.3278 -15.5431 3.5881 174.9300 -61.0433 -177.3182 25.8411 -2.0057 1.8833 -74.2215 -3.1600 5.4908 -59.0883 -1.1070 2.1527 -41.7682 -1.2402 1.5978 -11.9601 3.1478 3.6728 2.5819 1.2466 -1.1774 -5.1544 17.3882 6.7925 -59.8346 -5.1565 4.0767 -76.4610 -2.3344 0.7294 -48.6112 -1.5358 0.1983 -78.8155 -4.6772 5.5534 -59.7886 -2.4120 -0.1292 -34.5024 -1.0321 -0.2841 -75.0584 2.0409 5.8921 -65.2645 -3.1562 6.3177 -43.7127 -1.1528 1.7558 -8.7965 3.2861 0.4312 19.1478 43.1302 -30.8460 -172.9230 73.0117 -175.1507 -29.8315 4.4763 43.5344 49.7934 8.0941 3.5234 34.2958 0.7185 1.0772 39.0669 1.1558 1.4641 10.3261 -9.3648 -1.9744 -1.9687 -1.9674 -0.4561 1.3016 -2.8123 1.9177 49.4645 14.2813 1.7876 31.8073 0.9612 -0.1041 32.2383 0.9541 -0.0187 49.2592 5.9889 3.4463 22.1424 0.7793 -0.3563 22.5413 0.4813 -0.2606 56.1073 -1.8136 4.5857 22.0827 0.6644 0.7442 29.4826 0.8844 1.0866 -3.9674 -14.4839 -3.7602 -10.9253 -2.5138 47.4719 14.8017 -2.4491 0.5315 10.5300 3.1816 -23.2296 7.7128 0.1473 -37.8406 0.3883 -13.9948 44.9146 -8.7247 -14.3330 -10.8261 -0.0000 0.0000 -1.1885 
11.0676 90.3978 6.5318 -5.3591 2.8661 1.5499 -4.1926 3.5298 3.0526 -6.4561 6.8687 5.6939 -6.4234 6.8261 5.7750 -6.4789 -3.8012 -1.6129 16.5442 -28.1322 -7.5092 0.0000 -0.0000 0.0000 0.0000 -0.0000 0.0000 0.0000 -0.0000 0.0000 -6.6833 -6.8132 2.4438 -45.6007 -0.6927 0.7183 174.7155 -63.1013 -177.0757 25.5790 -5.4135 -1.1608 -76.4187 -2.4590 5.6530 -62.0359 -1.1161 2.2865 -43.9938 -1.2689 1.7035 -12.0551 3.1095 3.6553 2.5187 1.4259 -1.1338 -5.3851 18.4159 7.1445 -62.6145 -4.7632 4.3263 -80.4810 -2.4150 0.8500 -52.1161 -1.6423 0.2639 -83.1233 -4.4028 5.7931 -62.5829 -2.5199 -0.0713 -35.4666 -1.0736 -0.2814 -77.2318 2.1883 6.0262 -67.3116 -3.0116 6.4847 -44.5323 -1.1611 1.7956 -5.2455 3.0932 0.6262 26.2728 38.8475 -27.0027 -175.1906 58.0743 -177.6186 -27.8002 5.3814 43.8572 49.8385 8.7959 3.4949 29.1249 0.5966 0.8820 38.5697 1.1482 1.4412 10.7077 -9.4008 -1.9094 -1.9687 -1.9674 -0.4561 1.2684 -2.6072 1.8388 49.6380 15.2180 1.6441 28.2712 0.8387 -0.1200 31.3092 0.9228 -0.0258 48.9686 5.3347 3.4660 16.1121 0.5296 -0.2910 21.4137 0.4345 -0.2524 55.9866 -2.4384 4.6267 17.3532 0.5293 0.5630 28.9565 0.8732 1.0635 -5.8577 -14.6179 -5.6763 -8.8321 0.4801 50.6825 14.0493 -0.8195 0.2852 10.4326 3.6192 -25.7214 8.3300 0.5076 -39.3208 -1.0118 -13.8960 50.6235 -8.1242 -10.8466 -14.3785 -0.0000 -0.0000 -1.0892 
12.0034 89.0103 6.6066 -5.8714 -2.4590 1.4348 -4.6699 3.7329 3.6358 -6.9731 7.2622 6.5097 -6.9131 7.2192 6.6150 -5.7160 -3.9118 -1.6825 18.1124 -27.0079 -11.0607 0.0000 -0.0000 0.0000 0.0000 -0.0000 0.0000 0.0000 -0.0000 0.0000 -6.4638 -7.1965 2.5027 -52.3767 10.8781 -5.4871 171.5017 -76.7938 -173.6809 20.0118 -10.0481 -3.3892 -78.7785 -2.1148 5.8020 -65.2649 -1.1181 2.4335 -45.2365 -1.2832 1.7630 -11.8437 3.0464 3.5899 2.5029 1.4706 -1.1229 -5.5384 19.1284 7.3910 -65.1630 -4.7369 4.4942 -82.2794 -2.4482 0.9057 -54.4669 -1.7114 0.3115 -87.1428 -4.1476 5.9971 -64.4174 -2.5891 -0.0305 -35.9196 -1.0930 -0.2798 -79.2891 2.3102 6.1469 -69.2675 -2.8680 6.6394 -44.7325 -1.1631 1.8053 -3.2604 2.0805 0.6326 30.3132 38.9578 -24.2573 -175.5284 53.0274 -178.0271 -27.9101 6.4933 42.3744 50.0066 8.8244 3.5068 25.2103 0.4928 0.7421 38.1165 1.1411 1.4205 12.4530 -9.4809 -1.6748 -1.9687 -1.9674 -0.4561 1.2065 -2.2318 1.6944 49.8754 15.2616 1.6550 24.5946 0.7105 -0.1285 30.2809 0.8880 -0.0331 48.9727 4.1528 3.5432 11.8647 0.3585 -0.2294 20.7135 0.4056 -0.2468 55.9500 -3.0742 4.6751 15.4009 0.4693 0.4916 28.7109 0.8679 1.0528 -7.7945 -14.9760 -7.5629 -6.4572 3.1738 53.1318 13.2016 -0.6788 -0.6755 10.4514 4.2163 -28.3786 8.8584 1.6345 -40.0996 -2.3305 -13.7156 55.9619 -8.0751 -6.7733 -17.9041 -0.0000 0.0000 -0.9109 
13.0228 87.8362 6.5963 -6.5631 -9.2036 1.1144 -4.9541 3.6958 4.0659 -7.2797 7.2086 7.0028 -7.1961 7.1733 7.1200 -5.1240 -3.7326 -1.9647 18.1324 -24.8478 -12.9783 0.0000 -0.0000 0.0000 0.0000 -0.0000 0.0000 0.0000 -0.0000 0.0000 -5.7065 -6.8336 2.2989 -58.3736 16.7191 -12.7274 7.6822 -81.1998 -9.5820 13.0007 -11.3981 -6.1895 -81.1237 -2.0312 5.9318 -67.7009 -1.1141 2.5443 -45.5405 -1.2865 1.7776 -11.5923 2.9806 3.5185 2.5229 1.4139 -1.1367 -5.6842 19.8314 7.6363 -66.8037 -4.7778 4.5895 -82.6255 -2.4544 0.9165 -55.2067 -1.7328 0.3271 -89.4412 -3.9964 6.1051 -64.9936 -2.6106 -0.0173 -35.9640 -1.0949 -0.2797 -80.5772 2.3834 6.2198 -70.4406 -2.7793 6.7298 -44.5248 -1.1611 1.7952 -3.3631 1.5660 0.5701 31.3984 42.3712 -23.1383 -175.4258 54.7351 -177.9004 -28.2831 6.9763 43.0135 50.2748 8.4031 3.5468 22.5739 0.4177 0.6519 37.8564 1.1370 1.4086 14.8697 -9.4650 -1.4444 -1.9687 -1.9674 -0.4561 1.1542 -1.9227 1.5753 50.1659 14.9141 1.7353 21.5079 0.6026 -0.1292 29.3937 0.8579 -0.0389 49.2199 2.9508 3.6411 9.3273 0.2586 -0.1867 20.3350 0.3900 -0.2437 55.9862 -3.5766 4.7183 14.6837 0.4466 0.4658 28.5886 0.8653 1.0474 -9.1930 -14.6857 -9.2195 -4.5949 5.8183 54.5315 12.1944 -0.4882 -2.1404 10.1462 4.5243 -30.4031 9.4699 3.5443 -39.6540 -3.3111 -13.4578 60.3056 -8.6897 -2.4645 -21.1973 -0.0000 -0.0000 -0.7778 
14.0200 87.2606 6.6703 -7.6034 -17.1577 0.7254 -5.0495 3.5028 4.2956 -7.4178 6.8775 7.1508 -7.3210 6.8571 7.2651 -4.7538 -3.2904 -2.4148 17.8975 -21.8226 -13.9254 0.0000 -0.0000 0.0000 0.0000 -0.0000 0.0000 0.0000 -0.0000 0.0000 -5.9005 -7.5650 2.4965 -59.5060 19.8516 -15.7376 0.9198 -59.8343 -2.5368 10.1806 -7.3543 -11.3719 -82.7806 -2.0523 6.0160 -68.7829 -1.1108 2.5935 -45.3771 -1.2847 1.7698 -11.5330 2.9310 3.4776 2.5364 1.3755 -1.1461 -5.8339 20.5810 7.9003 -67.0090 -4.8308 4.5934 -82.2494 -2.4476 0.9047 -54.9155 -1.7244 0.3210 -89.8741 -3.9765 6.1242 -64.7560 -2.6017 -0.0228 -35.7192 -1.0844 -0.2806 -80.8385 2.4069 6.2350 -70.7068 -2.7589 6.7500 -44.0286 -1.1561 1.7711 -4.7868 1.5427 0.5041 30.4493 47.4223 -23.2985 -175.0974 59.2189 -177.5096 -27.8411 6.5387 46.3608 50.6448 7.9098 3.5980 20.8190 0.3654 0.5939 37.7352 1.1351 1.4031 16.7889 -9.2690 -1.3966 -1.9687 -1.9674 -0.4561 1.1581 -1.9454 1.5840 50.5039 14.5535 1.8211 19.4050 0.5292 -0.1264 28.7780 0.8369 -0.0426 49.6863 2.2456 3.7236 7.9501 0.2052 -0.1616 20.1510 0.3824 -0.2421 56.0883 -3.8940 4.7516 14.1237 0.4287 0.4460 28.4436 0.8621 1.0411 -9.9250 -13.5037 -10.5724 -2.7817 9.2593 55.0875 11.9942 -0.2070 -5.1616 6.6381 3.0629 -29.1703 10.4216 6.4567 -37.4666 -0.6065 -11.8371 62.1330 -10.1130 -1.6615 -23.4593 0.0000 -0.0000 -0.7401 
